<svg width="38" height="41" viewBox="0 0 38 41" fill="none" xmlns="http://www.w3.org/2000/svg">
<path d="M34 12.916V5.00004C34 3.89404 33.104 3.00004 32 3.00004C30.896 3.00004 30 3.89404 30 5.00004V9.00404L22.398 1.57004C21.62 0.808035 20.378 0.808035 19.602 1.57004L0.878 19.874C0.32 20.438 0 21.212 0 22C0 23.654 1.346 25 3 25H6V36C6 38.758 8.244 41 11 41H16C17.104 41 18 40.106 18 39C18 37.894 17.104 37 16 37H11C10.448 37 10 36.55 10 36V23C10 21.894 9.104 21 8 21H5.446L21 5.79604L34.102 18.608C34.894 19.382 36.158 19.368 36.93 18.576C37.702 17.786 37.688 16.52 36.898 15.748L34 12.916Z" fill="#3B3C45"/>
</svg>
